<svg xmlns="http://www.w3.org/2000/svg">
    <symbol id="offline" viewBox="0 0 24 24">
        <path d="M6.817 5.084l-2.057-2.937 1.639-1.147 14.601 20.853-1.638 1.147-1.401-2h-12.461c-3.037 0-5.5-2.463-5.5-5.5 0-2.702 1.951-4.945 4.521-5.408.105-1.965.965-3.73 2.296-5.008zm3.032-1.771c.681-.204 1.403-.313 2.151-.313 4.006 0 7.267 3.141 7.479 7.092 2.57.463 4.521 2.706 4.521 5.408 0 1.898-.962 3.571-2.424 4.56l-1.149-1.64c.947-.627 1.573-1.702 1.573-2.92 0-2.969-2.688-3.766-4.433-3.72.324-3.983-2.114-6.78-5.567-6.78-.317 0-.624.023-.922.068l-1.229-1.755zm-4.349 15.687h11.061l-8.595-12.274c-1.038 1.169-1.618 2.895-1.533 5.054-1.954-.113-4.433.923-4.433 3.72 0 1.93 1.57 3.5 3.5 3.5z"/>
    </symbol>

    <symbol id="share" viewBox="0 0 24 24">
        <path d="M20 3c0-1.657-1.344-3-3-3s-3 1.343-3 3c0 .312.061.606.149.889l-4.21 3.157c.473.471.878 1.01 1.201 1.599l4.197-3.148c.477.316 1.048.503 1.663.503 1.656 0 3-1.343 3-3zm-2 0c0 .551-.448 1-1 1s-1-.449-1-1 .448-1 1-1 1 .449 1 1zm3 12.062c1.656 0 3-1.343 3-3s-1.344-3-3-3c-1.281 0-2.367.807-2.797 1.938h-6.283c.047.328.08.66.08 1s-.033.672-.08 1h6.244c.396 1.195 1.509 2.062 2.836 2.062zm-1-3c0-.551.448-1 1-1s1 .449 1 1-.448 1-1 1-1-.448-1-1zm-20-.062c0 2.761 2.238 5 5 5s5-2.239 5-5-2.238-5-5-5-5 2.239-5 5zm2 0c0-1.654 1.346-3 3-3s3 1.346 3 3-1.346 3-3 3-3-1.346-3-3zm7.939 4.955l4.21 3.157c-.088.282-.149.576-.149.888 0 1.657 1.344 3 3 3s3-1.343 3-3-1.344-3-3-3c-.615 0-1.186.187-1.662.504l-4.197-3.148c-.324.589-.729 1.127-1.202 1.599zm6.061 4.045c0-.551.448-1 1-1s1 .449 1 1-.448 1-1 1-1-.449-1-1z"/>
    </symbol>

    <symbol id="app" viewBox="0 0 24 24">
        <path d="M22 14v8h-12v-8h12zm2-6h-16v16h16v-16zm-2-2h-16v16h1v-15h15v-1zm-2-2h-16v16h1v-15h15v-1zm-2-2h-16v16h1v-15h15v-1zm-2-2h-16v16h1v-15h15v-1z"/>
    </symbol>

    <symbol id="create" viewBox="0 0 24 24">
        <path d="M21.669 11l-1.385 9h-16.568l-1.385-9h19.338zm-13.697-9h-6.972l.714 5h2.021l-.429-3h3.694c1.112 1.388 1.952 2 4.277 2h9.283l-.2 1h2.04l.6-3h-11.723c-1.978 0-2.041-.417-3.305-2zm16.028 7h-24l2 13h20l2-13z"/>
    </symbol>

    <symbol id="phone" viewBox="0 0 24 24">
        <path d="M12.195 2c3.237 0 5.497.977 5.805 1.501v17.06c-.435.519-2.792 1.439-5.986 1.439-3.202 0-5.572-.922-6.014-1.443v-16.996c.438-.576 2.996-1.561 6.195-1.561zm0-2c-3.563 0-8.195 1.199-8.195 3.461v17.213c-.002 2.214 4.508 3.326 8.014 3.326 3.495 0 7.986-1.105 7.986-3.326v-17.213c0-2.348-4.371-3.461-7.805-3.461zm-.195 3c.276 0 .5.223.5.5 0 .276-.224.5-.5.5s-.5-.224-.5-.5c0-.277.224-.5.5-.5zm0 18c-.552 0-1-.448-1-1 0-.553.448-1 1-1s1 .447 1 1c0 .552-.448 1-1 1zm5-3h-10v-13h10v13z"/>
    </symbol>

    <symbol id="free" viewBox="0 0 24 24">
        <path d="M3 18.94c-1.623.741-3-1.295-3-1.295.823-.399 1.795-.923 3-1.509v2.804zm-3-12.585s1.508-2.071 3.147-1.276c1.006.487 7.804 3.811 11.286 5.503l.875-.421c.754-.364 1.248-.49 1.02-1.43-.572-2.358 1.486-4.731 4.05-4.731 2.056 0 3.59 1.514 3.59 3.379 0 1.406-.875 2.805-2.319 3.531-1.442.726-2.454.161-3.887.858l-.448.217.49.24c1.431.701 2.444.138 3.885.868 1.439.729 2.31 2.125 2.31 3.529.001 1.86-1.526 3.378-3.587 3.378-2.548 0-4.633-2.356-4.049-4.74.23-.939-.264-1.067-1.016-1.433-.394-.19-11.169-5.447-15.347-7.472zm18.144 2.254c.434.909 1.665 1.226 2.745.705 1.08-.52 1.605-1.683 1.172-2.591-.434-.909-1.665-1.226-2.745-.706s-1.606 1.683-1.172 2.592zm1.201 9.371c1.078.522 2.31.209 2.746-.699.436-.908-.087-2.072-1.165-2.595-1.079-.522-2.311-.209-2.746.699-.437.909.086 2.073 1.165 2.595zm-6.345-1.98h-1v2h1v-2zm-2 2v-4h-1v4h1zm-1-10.913l1 .488v-1.575h-1v1.087zm4.825 7.821l-.825-.402v3.994c0 .276-.224.5-.5.5h-4.5v-6.931l-2-.975v7.906h-1.5c-.276 0-.5-.224-.5-.5v-8.379l-1-.487v8.866c0 .829.671 1.5 1.5 1.5h8c.829 0 1.5-.671 1.5-1.5v-3.509l-.175-.083zm-9.1-9.908h1.275v.623l.32.156 1.68.82v-1.599h4.5c.276 0 .5.224.5.5v3.537l.436.212.351-.169.212-.101h.001v-3.479c0-.829-.671-1.5-1.5-1.5h-8c-.391 0-.743.153-1.01.397l1.235.603z"/>
    </symbol>
</svg>